<svg width="1927" height="280" viewBox="0 0 1927 280" fill="none" xmlns="http://www.w3.org/2000/svg">
<path d="M0 3.32419e-05L91.5 0L238 237.5L217.5 271C209 283.5 180 283 169.5 267.5L0 3.32419e-05Z" fill="white"/>
<path d="M245.499 228.5L198.5 153.5L236.5 87C242.696 78.5454 248.588 76.0594 264 76H337.5L245.499 228.5Z" fill="white"/>
<path d="M380.499 3.32419e-05L352.5 48C347.157 56.5825 342.404 59.0744 330.5 59H251L278.5 10.5C282.499 3.00006 289.999 0.000170914 302.999 3.32419e-05H380.499Z" fill="white"/>
<path d="M509.028 129.587L460.499 43.1162H480.793L516.969 109.293L553.146 43.1162H572.557L524.91 129.587H509.028Z" fill="white"/>
<path d="M999.616 43.1162V58.9986H964.322V129.587H948.44V58.9986H913.146V43.1162H999.616Z" fill="white"/>
<path d="M1233.44 86.3515L1194.62 43.1162H1216.68L1244.91 74.8809L1272.26 43.1162H1292.56L1254.62 86.3515L1293.44 129.587H1273.15L1244.03 96.9397L1214.91 129.587H1193.73L1233.44 86.3515Z" fill="white"/>
<path d="M707.557 58.9986H624.616V43.1162H707.557V58.9986Z" fill="white"/>
<path d="M708.44 129.587H624.616V78.4103H702.263V93.4103H640.499V114.587H708.44V129.587Z" fill="white"/>
<path d="M1139.91 58.9986H1056.97V43.1162H1139.91V58.9986Z" fill="white"/>
<path d="M1140.79 129.587H1056.97V78.4103H1134.62V93.4103H1072.85V114.587H1140.79V129.587Z" fill="white"/>
<path d="M768.44 129.587V43.1162H828.44C848.734 43.1162 857.557 57.2339 857.557 71.3515C857.557 87.2339 846.969 97.8221 832.851 97.8221L861.969 129.587H841.675L800.204 83.7045H831.969C839.028 83.7045 842.557 79.2927 842.557 71.3515C842.557 63.4103 839.028 58.9986 831.969 58.9986H784.322V129.587H768.44Z" fill="white"/>
<mask id="path-3-outside-1_2419_49" maskUnits="userSpaceOnUse" x="1390.26" y="39.3516" width="537" height="94" fill="black">
<rect fill="white" x="1390.26" y="39.3516" width="537" height="94"/>
<path d="M1392.26 129.552V43.1516H1403.06V120.552H1471.46V129.552H1392.26Z"/>
<path d="M1515.14 129.552L1565.54 43.1516H1579.94L1630.34 129.552H1617.74L1606.94 109.752H1538.54L1527.74 129.552H1515.14ZM1543.94 100.752H1601.54L1572.74 50.3516L1543.94 100.752Z"/>
<path d="M1674.15 129.552V43.1516H1743C1749.53 43.1516 1754.87 43.7703 1759.03 45.0078C1763.23 46.2078 1766.33 48.3641 1768.32 51.4766C1770.34 54.5516 1771.35 58.9203 1771.35 64.5828C1771.35 69.6828 1770.17 73.9016 1767.81 77.2391C1765.45 80.5766 1761.83 82.4141 1756.95 82.7516C1763.33 83.3891 1767.92 85.6766 1770.73 89.6141C1773.55 93.5141 1774.95 98.4266 1774.95 104.352C1774.95 109.489 1774.35 113.708 1773.15 117.008C1771.99 120.308 1770.02 122.877 1767.25 124.714C1764.47 126.514 1760.7 127.77 1755.94 128.483C1751.22 129.195 1745.31 129.552 1738.22 129.552H1674.15ZM1684.95 79.1516H1735.3C1741.11 79.1516 1745.87 78.9453 1749.58 78.5328C1753.3 78.1203 1756.05 76.9016 1757.85 74.8766C1759.65 72.8516 1760.55 69.4203 1760.55 64.5828C1760.55 60.7953 1760.01 58.0203 1758.92 56.2578C1757.87 54.4953 1756.07 53.3703 1753.52 52.8828C1750.97 52.3953 1747.47 52.1516 1743 52.1516H1684.95V79.1516ZM1684.95 120.552H1738.22C1743.36 120.552 1747.6 120.42 1750.93 120.158C1754.31 119.895 1756.95 119.258 1758.87 118.245C1760.82 117.233 1762.18 115.639 1762.97 113.464C1763.76 111.252 1764.15 108.214 1764.15 104.352C1764.15 100.377 1763.4 97.2828 1761.9 95.0703C1760.44 92.8578 1758.38 91.2641 1755.72 90.2891C1753.09 89.3141 1750.03 88.7141 1746.55 88.4891C1743.06 88.2641 1739.31 88.1516 1735.3 88.1516H1684.95V120.552Z"/>
<path d="M1914.34 104.577C1914.34 101.239 1914.08 98.6141 1913.55 96.7016C1913.03 94.7891 1911.84 93.3828 1910.01 92.4828C1908.17 91.5453 1905.32 90.9453 1901.46 90.6828C1897.59 90.3828 1892.31 90.1766 1885.59 90.0641L1854.32 89.6141C1846.59 89.5016 1840.39 89.0328 1835.7 88.2078C1831.01 87.3828 1827.47 86.0891 1825.07 84.3266C1822.67 82.5266 1821.06 80.1266 1820.23 77.1266C1819.44 74.1266 1819.05 70.3766 1819.05 65.8766C1819.05 60.9641 1819.59 56.9141 1820.68 53.7266C1821.81 50.5391 1823.81 48.0453 1826.7 46.2453C1829.63 44.4453 1833.75 43.1891 1839.08 42.4766C1844.4 41.7266 1851.28 41.3516 1859.72 41.3516H1883.79C1891.44 41.3516 1897.82 41.5953 1902.92 42.0828C1908.02 42.5703 1912.07 43.6953 1915.07 45.4578C1918.07 47.2203 1920.21 49.9578 1921.48 53.6703C1922.79 57.3828 1923.45 62.4828 1923.45 68.9703H1912.65C1912.65 63.9453 1912.16 60.1578 1911.19 57.6078C1910.25 55.0203 1908.68 53.2578 1906.46 52.3203C1904.29 51.3828 1901.34 50.8766 1897.63 50.8016C1893.92 50.7266 1889.31 50.6891 1883.79 50.6891H1860.28C1853.57 50.6891 1848.19 50.8203 1844.14 51.0828C1840.13 51.3453 1837.09 51.9453 1835.03 52.8828C1832.96 53.8203 1831.58 55.3203 1830.86 57.3828C1830.19 59.4453 1829.85 62.2766 1829.85 65.8766C1829.85 68.9141 1830.09 71.3516 1830.58 73.1891C1831.07 75.0266 1832.16 76.4328 1833.84 77.4078C1835.57 78.3453 1838.21 79.0016 1841.78 79.3766C1845.34 79.7141 1850.19 79.9203 1856.34 79.9953L1889.87 80.4453C1897.74 80.5578 1904.03 81.0266 1908.71 81.8516C1913.44 82.6391 1916.96 83.9328 1919.29 85.7328C1921.65 87.5328 1923.21 89.9703 1923.96 93.0453C1924.74 96.0828 1925.14 99.9266 1925.14 104.577C1925.14 109.639 1924.65 113.895 1923.68 117.345C1922.74 120.758 1920.9 123.495 1918.16 125.558C1915.43 127.62 1911.47 129.102 1906.29 130.002C1901.12 130.902 1894.31 131.352 1885.88 131.352H1859.55C1851.86 131.352 1845.41 131.014 1840.2 130.339C1834.99 129.664 1830.83 128.314 1827.71 126.289C1824.64 124.227 1822.43 121.17 1821.08 117.12C1819.73 113.07 1819.05 107.67 1819.05 100.92H1829.85C1829.85 106.208 1830.28 110.295 1831.14 113.183C1832.01 116.07 1833.51 118.152 1835.64 119.427C1837.82 120.664 1840.84 121.414 1844.7 121.677C1848.6 121.902 1853.55 122.014 1859.55 122.014H1885.31C1892.03 122.014 1897.33 121.808 1901.23 121.395C1905.13 120.945 1908.02 120.12 1909.89 118.92C1911.77 117.683 1912.97 115.92 1913.49 113.633C1914.06 111.345 1914.34 108.327 1914.34 104.577Z"/>
</mask>
<path d="M1392.26 129.552V43.1516H1403.06V120.552H1471.46V129.552H1392.26Z" fill="white"/>
<path d="M1515.14 129.552L1565.54 43.1516H1579.94L1630.34 129.552H1617.74L1606.94 109.752H1538.54L1527.74 129.552H1515.14ZM1543.94 100.752H1601.54L1572.74 50.3516L1543.94 100.752Z" fill="white"/>
<path d="M1674.15 129.552V43.1516H1743C1749.53 43.1516 1754.87 43.7703 1759.03 45.0078C1763.23 46.2078 1766.33 48.3641 1768.32 51.4766C1770.34 54.5516 1771.35 58.9203 1771.35 64.5828C1771.35 69.6828 1770.17 73.9016 1767.81 77.2391C1765.45 80.5766 1761.83 82.4141 1756.95 82.7516C1763.33 83.3891 1767.92 85.6766 1770.73 89.6141C1773.55 93.5141 1774.95 98.4266 1774.95 104.352C1774.95 109.489 1774.35 113.708 1773.15 117.008C1771.99 120.308 1770.02 122.877 1767.25 124.714C1764.47 126.514 1760.7 127.77 1755.94 128.483C1751.22 129.195 1745.31 129.552 1738.22 129.552H1674.15ZM1684.95 79.1516H1735.3C1741.11 79.1516 1745.87 78.9453 1749.58 78.5328C1753.3 78.1203 1756.05 76.9016 1757.85 74.8766C1759.65 72.8516 1760.55 69.4203 1760.55 64.5828C1760.55 60.7953 1760.01 58.0203 1758.92 56.2578C1757.87 54.4953 1756.07 53.3703 1753.52 52.8828C1750.97 52.3953 1747.47 52.1516 1743 52.1516H1684.95V79.1516ZM1684.95 120.552H1738.22C1743.36 120.552 1747.6 120.42 1750.93 120.158C1754.31 119.895 1756.95 119.258 1758.87 118.245C1760.82 117.233 1762.18 115.639 1762.97 113.464C1763.76 111.252 1764.15 108.214 1764.15 104.352C1764.15 100.377 1763.4 97.2828 1761.9 95.0703C1760.44 92.8578 1758.38 91.2641 1755.72 90.2891C1753.09 89.3141 1750.03 88.7141 1746.55 88.4891C1743.06 88.2641 1739.31 88.1516 1735.3 88.1516H1684.95V120.552Z" fill="white"/>
<path d="M1914.34 104.577C1914.34 101.239 1914.08 98.6141 1913.55 96.7016C1913.03 94.7891 1911.84 93.3828 1910.01 92.4828C1908.17 91.5453 1905.32 90.9453 1901.46 90.6828C1897.59 90.3828 1892.31 90.1766 1885.59 90.0641L1854.32 89.6141C1846.59 89.5016 1840.39 89.0328 1835.7 88.2078C1831.01 87.3828 1827.47 86.0891 1825.07 84.3266C1822.67 82.5266 1821.06 80.1266 1820.23 77.1266C1819.44 74.1266 1819.05 70.3766 1819.05 65.8766C1819.05 60.9641 1819.59 56.9141 1820.68 53.7266C1821.81 50.5391 1823.81 48.0453 1826.7 46.2453C1829.63 44.4453 1833.75 43.1891 1839.08 42.4766C1844.4 41.7266 1851.28 41.3516 1859.72 41.3516H1883.79C1891.44 41.3516 1897.82 41.5953 1902.92 42.0828C1908.02 42.5703 1912.07 43.6953 1915.07 45.4578C1918.07 47.2203 1920.21 49.9578 1921.48 53.6703C1922.79 57.3828 1923.45 62.4828 1923.45 68.9703H1912.65C1912.65 63.9453 1912.16 60.1578 1911.19 57.6078C1910.25 55.0203 1908.68 53.2578 1906.46 52.3203C1904.29 51.3828 1901.34 50.8766 1897.63 50.8016C1893.92 50.7266 1889.31 50.6891 1883.79 50.6891H1860.28C1853.57 50.6891 1848.19 50.8203 1844.14 51.0828C1840.13 51.3453 1837.09 51.9453 1835.03 52.8828C1832.96 53.8203 1831.58 55.3203 1830.86 57.3828C1830.19 59.4453 1829.85 62.2766 1829.85 65.8766C1829.85 68.9141 1830.09 71.3516 1830.58 73.1891C1831.07 75.0266 1832.16 76.4328 1833.84 77.4078C1835.57 78.3453 1838.21 79.0016 1841.78 79.3766C1845.34 79.7141 1850.19 79.9203 1856.34 79.9953L1889.87 80.4453C1897.74 80.5578 1904.03 81.0266 1908.71 81.8516C1913.44 82.6391 1916.96 83.9328 1919.29 85.7328C1921.65 87.5328 1923.21 89.9703 1923.96 93.0453C1924.74 96.0828 1925.14 99.9266 1925.14 104.577C1925.14 109.639 1924.65 113.895 1923.68 117.345C1922.74 120.758 1920.9 123.495 1918.16 125.558C1915.43 127.62 1911.47 129.102 1906.29 130.002C1901.12 130.902 1894.31 131.352 1885.88 131.352H1859.55C1851.86 131.352 1845.41 131.014 1840.2 130.339C1834.99 129.664 1830.83 128.314 1827.71 126.289C1824.64 124.227 1822.43 121.17 1821.08 117.12C1819.73 113.07 1819.05 107.67 1819.05 100.92H1829.85C1829.85 106.208 1830.28 110.295 1831.14 113.183C1832.01 116.07 1833.51 118.152 1835.64 119.427C1837.82 120.664 1840.84 121.414 1844.7 121.677C1848.6 121.902 1853.55 122.014 1859.55 122.014H1885.31C1892.03 122.014 1897.33 121.808 1901.23 121.395C1905.13 120.945 1908.02 120.12 1909.89 118.92C1911.77 117.683 1912.97 115.92 1913.49 113.633C1914.06 111.345 1914.34 108.327 1914.34 104.577Z" fill="white"/>
<path d="M1392.26 129.552V43.1516H1403.06V120.552H1471.46V129.552H1392.26Z" stroke="white" stroke-width="3.52941" mask="url(#path-3-outside-1_2419_49)"/>
<path d="M1515.14 129.552L1565.54 43.1516H1579.94L1630.34 129.552H1617.74L1606.94 109.752H1538.54L1527.74 129.552H1515.14ZM1543.94 100.752H1601.54L1572.74 50.3516L1543.94 100.752Z" stroke="white" stroke-width="3.52941" mask="url(#path-3-outside-1_2419_49)"/>
<path d="M1674.15 129.552V43.1516H1743C1749.53 43.1516 1754.87 43.7703 1759.03 45.0078C1763.23 46.2078 1766.33 48.3641 1768.32 51.4766C1770.34 54.5516 1771.35 58.9203 1771.35 64.5828C1771.35 69.6828 1770.17 73.9016 1767.81 77.2391C1765.45 80.5766 1761.83 82.4141 1756.95 82.7516C1763.33 83.3891 1767.92 85.6766 1770.73 89.6141C1773.55 93.5141 1774.95 98.4266 1774.95 104.352C1774.95 109.489 1774.35 113.708 1773.15 117.008C1771.99 120.308 1770.02 122.877 1767.25 124.714C1764.47 126.514 1760.7 127.77 1755.94 128.483C1751.22 129.195 1745.31 129.552 1738.22 129.552H1674.15ZM1684.95 79.1516H1735.3C1741.11 79.1516 1745.87 78.9453 1749.58 78.5328C1753.3 78.1203 1756.05 76.9016 1757.85 74.8766C1759.65 72.8516 1760.55 69.4203 1760.55 64.5828C1760.55 60.7953 1760.01 58.0203 1758.92 56.2578C1757.87 54.4953 1756.07 53.3703 1753.52 52.8828C1750.97 52.3953 1747.47 52.1516 1743 52.1516H1684.95V79.1516ZM1684.95 120.552H1738.22C1743.36 120.552 1747.6 120.42 1750.93 120.158C1754.31 119.895 1756.95 119.258 1758.87 118.245C1760.82 117.233 1762.18 115.639 1762.97 113.464C1763.76 111.252 1764.15 108.214 1764.15 104.352C1764.15 100.377 1763.4 97.2828 1761.9 95.0703C1760.44 92.8578 1758.38 91.2641 1755.72 90.2891C1753.09 89.3141 1750.03 88.7141 1746.55 88.4891C1743.06 88.2641 1739.31 88.1516 1735.3 88.1516H1684.95V120.552Z" stroke="white" stroke-width="3.52941" mask="url(#path-3-outside-1_2419_49)"/>
<path d="M1914.34 104.577C1914.34 101.239 1914.08 98.6141 1913.55 96.7016C1913.03 94.7891 1911.84 93.3828 1910.01 92.4828C1908.17 91.5453 1905.32 90.9453 1901.46 90.6828C1897.59 90.3828 1892.31 90.1766 1885.59 90.0641L1854.32 89.6141C1846.59 89.5016 1840.39 89.0328 1835.7 88.2078C1831.01 87.3828 1827.47 86.0891 1825.07 84.3266C1822.67 82.5266 1821.06 80.1266 1820.23 77.1266C1819.44 74.1266 1819.05 70.3766 1819.05 65.8766C1819.05 60.9641 1819.59 56.9141 1820.68 53.7266C1821.81 50.5391 1823.81 48.0453 1826.7 46.2453C1829.63 44.4453 1833.75 43.1891 1839.08 42.4766C1844.4 41.7266 1851.28 41.3516 1859.72 41.3516H1883.79C1891.44 41.3516 1897.82 41.5953 1902.92 42.0828C1908.02 42.5703 1912.07 43.6953 1915.07 45.4578C1918.07 47.2203 1920.21 49.9578 1921.48 53.6703C1922.79 57.3828 1923.45 62.4828 1923.45 68.9703H1912.65C1912.65 63.9453 1912.16 60.1578 1911.19 57.6078C1910.25 55.0203 1908.68 53.2578 1906.46 52.3203C1904.29 51.3828 1901.34 50.8766 1897.63 50.8016C1893.92 50.7266 1889.31 50.6891 1883.79 50.6891H1860.28C1853.57 50.6891 1848.19 50.8203 1844.14 51.0828C1840.13 51.3453 1837.09 51.9453 1835.03 52.8828C1832.96 53.8203 1831.58 55.3203 1830.86 57.3828C1830.19 59.4453 1829.85 62.2766 1829.85 65.8766C1829.85 68.9141 1830.09 71.3516 1830.58 73.1891C1831.07 75.0266 1832.16 76.4328 1833.84 77.4078C1835.57 78.3453 1838.21 79.0016 1841.78 79.3766C1845.34 79.7141 1850.19 79.9203 1856.34 79.9953L1889.87 80.4453C1897.74 80.5578 1904.03 81.0266 1908.71 81.8516C1913.44 82.6391 1916.96 83.9328 1919.29 85.7328C1921.65 87.5328 1923.21 89.9703 1923.96 93.0453C1924.74 96.0828 1925.14 99.9266 1925.14 104.577C1925.14 109.639 1924.65 113.895 1923.68 117.345C1922.74 120.758 1920.9 123.495 1918.16 125.558C1915.43 127.62 1911.47 129.102 1906.29 130.002C1901.12 130.902 1894.31 131.352 1885.88 131.352H1859.55C1851.86 131.352 1845.41 131.014 1840.2 130.339C1834.99 129.664 1830.83 128.314 1827.71 126.289C1824.64 124.227 1822.43 121.17 1821.08 117.12C1819.73 113.07 1819.05 107.67 1819.05 100.92H1829.85C1829.85 106.208 1830.28 110.295 1831.14 113.183C1832.01 116.07 1833.51 118.152 1835.64 119.427C1837.82 120.664 1840.84 121.414 1844.7 121.677C1848.6 121.902 1853.55 122.014 1859.55 122.014H1885.31C1892.03 122.014 1897.33 121.808 1901.23 121.395C1905.13 120.945 1908.02 120.12 1909.89 118.92C1911.77 117.683 1912.97 115.92 1913.49 113.633C1914.06 111.345 1914.34 108.327 1914.34 104.577Z" stroke="white" stroke-width="3.52941" mask="url(#path-3-outside-1_2419_49)"/>
<rect x="467.208" y="203.639" width="247.849" height="7.62611" fill="white"/>
<path d="M805.818 225.452H801.997V196.139H791.72V192.788H816.051V196.139H805.818V225.452ZM848.326 225.452H830.14V192.788H848.326V196.139H833.938V206.707H847.499V210.014H833.938V222.101H848.326V225.452ZM878.68 195.67C876.878 195.67 875.254 195.983 873.809 196.609C872.38 197.219 871.158 198.113 870.145 199.29C869.147 200.451 868.38 201.859 867.844 203.512C867.308 205.166 867.04 207.027 867.04 209.098C867.04 211.838 867.464 214.222 868.313 216.247C869.177 218.258 870.458 219.815 872.156 220.917C873.869 222.019 876.006 222.57 878.568 222.57C880.028 222.57 881.398 222.451 882.679 222.213C883.975 221.959 885.234 221.647 886.455 221.274V224.581C885.264 225.028 884.012 225.355 882.702 225.564C881.391 225.787 879.834 225.899 878.032 225.899C874.711 225.899 871.933 225.214 869.699 223.844C867.479 222.458 865.811 220.507 864.694 217.99C863.592 215.473 863.041 212.501 863.041 209.075C863.041 206.603 863.383 204.346 864.068 202.306C864.768 200.25 865.781 198.478 867.107 196.988C868.447 195.499 870.086 194.352 872.022 193.548C873.973 192.728 876.208 192.319 878.725 192.319C880.378 192.319 881.972 192.483 883.506 192.81C885.04 193.138 886.425 193.607 887.662 194.218L886.142 197.435C885.1 196.959 883.953 196.549 882.702 196.206C881.465 195.849 880.125 195.67 878.68 195.67ZM927.444 225.452H923.646V210.059H906.487V225.452H902.689V192.788H906.487V206.707H923.646V192.788H927.444V225.452ZM971.114 225.452H966.735L948.928 198.016H948.749C948.794 198.746 948.846 199.58 948.906 200.518C948.965 201.442 949.01 202.432 949.04 203.49C949.085 204.533 949.107 205.598 949.107 206.685V225.452H945.577V192.788H949.934L967.673 220.135H967.83C967.8 219.614 967.763 218.876 967.718 217.923C967.673 216.955 967.629 215.92 967.584 214.817C967.554 213.7 967.539 212.665 967.539 211.712V192.788H971.114V225.452ZM1017.51 209.075C1017.51 211.593 1017.19 213.886 1016.55 215.957C1015.91 218.012 1014.96 219.785 1013.69 221.274C1012.44 222.749 1010.88 223.888 1009.02 224.693C1007.16 225.497 1005 225.899 1002.54 225.899C1000.01 225.899 997.796 225.497 995.905 224.693C994.028 223.888 992.464 222.741 991.213 221.252C989.977 219.762 989.046 217.983 988.42 215.912C987.809 213.842 987.504 211.548 987.504 209.031C987.504 205.694 988.055 202.768 989.157 200.25C990.26 197.733 991.928 195.774 994.162 194.374C996.411 192.974 999.226 192.274 1002.61 192.274C1005.84 192.274 1008.56 192.967 1010.76 194.352C1012.98 195.737 1014.66 197.688 1015.79 200.206C1016.94 202.708 1017.51 205.665 1017.51 209.075ZM991.503 209.075C991.503 211.846 991.898 214.244 992.687 216.27C993.477 218.295 994.683 219.859 996.307 220.962C997.945 222.064 1000.02 222.615 1002.54 222.615C1005.07 222.615 1007.14 222.064 1008.75 220.962C1010.37 219.859 1011.57 218.295 1012.35 216.27C1013.12 214.244 1013.51 211.846 1013.51 209.075C1013.51 204.86 1012.62 201.569 1010.85 199.2C1009.09 196.817 1006.35 195.626 1002.61 195.626C1000.08 195.626 997.99 196.169 996.352 197.257C994.713 198.344 993.492 199.893 992.687 201.904C991.898 203.9 991.503 206.29 991.503 209.075ZM1033.94 225.452V192.788H1037.74V222.056H1052.24V225.452H1033.94ZM1095.33 209.075C1095.33 211.593 1095.01 213.886 1094.37 215.957C1093.73 218.012 1092.78 219.785 1091.51 221.274C1090.26 222.749 1088.7 223.888 1086.84 224.693C1084.98 225.497 1082.82 225.899 1080.36 225.899C1077.83 225.899 1075.62 225.497 1073.73 224.693C1071.85 223.888 1070.29 222.741 1069.04 221.252C1067.8 219.762 1066.87 217.983 1066.24 215.912C1065.63 213.842 1065.33 211.548 1065.33 209.031C1065.33 205.694 1065.88 202.768 1066.98 200.25C1068.08 197.733 1069.75 195.774 1071.98 194.374C1074.23 192.974 1077.05 192.274 1080.43 192.274C1083.66 192.274 1086.38 192.967 1088.58 194.352C1090.8 195.737 1092.48 197.688 1093.61 200.206C1094.76 202.708 1095.33 205.665 1095.33 209.075ZM1069.33 209.075C1069.33 211.846 1069.72 214.244 1070.51 216.27C1071.3 218.295 1072.51 219.859 1074.13 220.962C1075.77 222.064 1077.85 222.615 1080.36 222.615C1082.89 222.615 1084.96 222.064 1086.57 220.962C1088.2 219.859 1089.4 218.295 1090.17 216.27C1090.95 214.244 1091.33 211.846 1091.33 209.075C1091.33 204.86 1090.45 201.569 1088.67 199.2C1086.92 196.817 1084.17 195.626 1080.43 195.626C1077.9 195.626 1075.81 196.169 1074.17 197.257C1072.54 198.344 1071.31 199.893 1070.51 201.904C1069.72 203.9 1069.33 206.29 1069.33 209.075ZM1125.73 208.338H1137.15V224.179C1135.43 224.76 1133.67 225.192 1131.85 225.475C1130.05 225.758 1128.03 225.899 1125.8 225.899C1122.4 225.899 1119.53 225.221 1117.2 223.866C1114.87 222.511 1113.11 220.582 1111.9 218.079C1110.69 215.562 1110.09 212.576 1110.09 209.12C1110.09 205.739 1110.75 202.79 1112.08 200.273C1113.42 197.755 1115.35 195.804 1117.87 194.419C1120.4 193.019 1123.44 192.319 1126.98 192.319C1128.8 192.319 1130.52 192.49 1132.14 192.833C1133.78 193.16 1135.3 193.63 1136.7 194.24L1135.25 197.547C1134.04 197.026 1132.71 196.579 1131.25 196.206C1129.8 195.834 1128.31 195.648 1126.76 195.648C1124.09 195.648 1121.81 196.199 1119.9 197.301C1118.01 198.403 1116.56 199.96 1115.54 201.971C1114.54 203.981 1114.05 206.365 1114.05 209.12C1114.05 211.846 1114.48 214.222 1115.36 216.247C1116.24 218.258 1117.61 219.822 1119.47 220.939C1121.34 222.056 1123.73 222.615 1126.67 222.615C1128.14 222.615 1129.41 222.533 1130.47 222.369C1131.52 222.19 1132.49 221.982 1133.35 221.743V211.734H1125.73V208.338ZM1162.54 209.165L1171.23 192.788H1175.32L1164.44 212.784V225.452H1160.64V212.963L1149.74 192.788H1153.89L1162.54 209.165ZM1234.84 225.452H1231.04V192.788H1249.22V196.139H1234.84V208.115H1248.35V211.444H1234.84V225.452ZM1292.16 209.075C1292.16 211.593 1291.84 213.886 1291.2 215.957C1290.56 218.012 1289.6 219.785 1288.34 221.274C1287.09 222.749 1285.53 223.888 1283.67 224.693C1281.81 225.497 1279.65 225.899 1277.19 225.899C1274.66 225.899 1272.44 225.497 1270.55 224.693C1268.68 223.888 1267.11 222.741 1265.86 221.252C1264.62 219.762 1263.69 217.983 1263.07 215.912C1262.46 213.842 1262.15 211.548 1262.15 209.031C1262.15 205.694 1262.7 202.768 1263.8 200.25C1264.91 197.733 1266.58 195.774 1268.81 194.374C1271.06 192.974 1273.87 192.274 1277.25 192.274C1280.49 192.274 1283.21 192.967 1285.41 194.352C1287.63 195.737 1289.3 197.688 1290.44 200.206C1291.58 202.708 1292.16 205.665 1292.16 209.075ZM1266.15 209.075C1266.15 211.846 1266.55 214.244 1267.33 216.27C1268.12 218.295 1269.33 219.859 1270.95 220.962C1272.59 222.064 1274.67 222.615 1277.19 222.615C1279.72 222.615 1281.79 222.064 1283.4 220.962C1285.02 219.859 1286.22 218.295 1287 216.27C1287.77 214.244 1288.16 211.846 1288.16 209.075C1288.16 204.86 1287.27 201.569 1285.5 199.2C1283.74 196.817 1280.99 195.626 1277.25 195.626C1274.72 195.626 1272.64 196.169 1271 197.257C1269.36 198.344 1268.14 199.893 1267.33 201.904C1266.55 203.9 1266.15 206.29 1266.15 209.075ZM1317.42 192.788C1320.1 192.788 1322.31 193.123 1324.05 193.793C1325.81 194.449 1327.12 195.454 1327.98 196.81C1328.85 198.165 1329.28 199.893 1329.28 201.993C1329.28 203.721 1328.97 205.166 1328.34 206.327C1327.72 207.474 1326.9 208.405 1325.88 209.12C1324.87 209.835 1323.79 210.386 1322.64 210.773L1331.6 225.452H1327.18L1319.18 211.824H1312.39V225.452H1308.59V192.788H1317.42ZM1317.19 196.072H1312.39V208.606H1317.57C1320.24 208.606 1322.2 208.063 1323.45 206.975C1324.72 205.888 1325.35 204.287 1325.35 202.172C1325.35 199.952 1324.68 198.381 1323.34 197.458C1322.01 196.534 1319.96 196.072 1317.19 196.072ZM1388.06 225.452V192.788H1391.86V225.452H1388.06ZM1424.36 225.452L1413.39 196.542H1413.21C1413.27 197.152 1413.32 197.897 1413.36 198.776C1413.41 199.655 1413.44 200.615 1413.47 201.658C1413.5 202.686 1413.52 203.736 1413.52 204.808V225.452H1409.99V192.788H1415.62L1425.96 219.956H1426.12L1436.62 192.788H1442.21V225.452H1438.45V204.54C1438.45 203.572 1438.47 202.604 1438.5 201.636C1438.53 200.653 1438.56 199.729 1438.61 198.865C1438.65 197.986 1438.7 197.227 1438.74 196.586H1438.56L1427.46 225.452H1424.36ZM1468.83 192.788C1473.04 192.788 1476.12 193.615 1478.06 195.268C1480.01 196.906 1480.98 199.26 1480.98 202.328C1480.98 203.713 1480.75 205.032 1480.29 206.283C1479.84 207.519 1479.11 208.614 1478.1 209.567C1477.09 210.505 1475.76 211.25 1474.1 211.801C1472.46 212.337 1470.45 212.606 1468.07 212.606H1464.09V225.452H1460.29V192.788H1468.83ZM1468.47 196.028H1464.09V209.344H1467.65C1469.73 209.344 1471.47 209.12 1472.85 208.673C1474.25 208.226 1475.3 207.504 1476 206.506C1476.7 205.493 1477.05 204.153 1477.05 202.485C1477.05 200.31 1476.36 198.694 1474.97 197.636C1473.59 196.564 1471.42 196.028 1468.47 196.028ZM1517.46 225.452L1513.44 215.086H1500.35L1496.35 225.452H1492.5L1505.28 192.654H1508.7L1521.39 225.452H1517.46ZM1512.3 211.712L1508.48 201.412C1508.39 201.144 1508.24 200.705 1508.03 200.094C1507.84 199.483 1507.64 198.85 1507.43 198.195C1507.22 197.54 1507.05 197.011 1506.91 196.609C1506.76 197.219 1506.6 197.83 1506.42 198.441C1506.26 199.036 1506.09 199.595 1505.93 200.116C1505.77 200.623 1505.63 201.055 1505.51 201.412L1501.62 211.712H1512.3ZM1549.04 195.67C1547.24 195.67 1545.62 195.983 1544.17 196.609C1542.74 197.219 1541.52 198.113 1540.51 199.29C1539.51 200.451 1538.74 201.859 1538.21 203.512C1537.67 205.166 1537.4 207.027 1537.4 209.098C1537.4 211.838 1537.83 214.222 1538.68 216.247C1539.54 218.258 1540.82 219.815 1542.52 220.917C1544.23 222.019 1546.37 222.57 1548.93 222.57C1550.39 222.57 1551.76 222.451 1553.04 222.213C1554.34 221.959 1555.6 221.647 1556.82 221.274V224.581C1555.63 225.028 1554.37 225.355 1553.06 225.564C1551.75 225.787 1550.2 225.899 1548.39 225.899C1545.07 225.899 1542.29 225.214 1540.06 223.844C1537.84 222.458 1536.17 220.507 1535.06 217.99C1533.95 215.473 1533.4 212.501 1533.4 209.075C1533.4 206.603 1533.75 204.346 1534.43 202.306C1535.13 200.25 1536.14 198.478 1537.47 196.988C1538.81 195.499 1540.45 194.352 1542.38 193.548C1544.34 192.728 1546.57 192.319 1549.09 192.319C1550.74 192.319 1552.33 192.483 1553.87 192.81C1555.4 193.138 1556.79 193.607 1558.02 194.218L1556.5 197.435C1555.46 196.959 1554.31 196.549 1553.06 196.206C1551.83 195.849 1550.49 195.67 1549.04 195.67ZM1583.08 225.452H1579.26V196.139H1568.98V192.788H1593.32V196.139H1583.08V225.452Z" fill="white"/>
<rect x="1670.58" y="203.639" width="247.849" height="7.62611" fill="white"/>
</svg>
