<svg width="2247" height="280" viewBox="0 0 2247 280" fill="none" xmlns="http://www.w3.org/2000/svg">
<path d="M238 237.5L217.5 271C209 283.5 180 283 169.5 267.5L0 0H91.5L238 237.5ZM249.756 221.442L202.587 146.347L236.5 87C242.696 78.5456 248.588 76.0594 264 76H337.5L249.756 221.442ZM352.5 48C347.158 56.5823 342.404 59.0743 330.5 59H251L278.5 10.5C282.5 3.00019 289.999 0.00013767 302.999 0H380.499L352.5 48Z" fill="url(#paint0_linear_2444_16)"/>
<path d="M0 3.32419e-05L91.5 0L238 237.5L217.5 271C209 283.5 180 283 169.5 267.5L0 3.32419e-05Z" fill="white"/>
<path d="M519.591 127.089L460.499 21.7979H485.21L529.261 102.378L573.311 21.7979H596.948L538.93 127.089H519.591Z" fill="white"/>
<path d="M1116.96 21.7979V41.137H1073.98V127.089H1054.64V41.137H1011.67V21.7979H1116.96Z" fill="white"/>
<path d="M1401.67 74.4434L1354.4 21.7979H1381.26L1415.64 60.4762L1448.95 21.7979H1473.66L1427.46 74.4434L1474.73 127.089H1450.02L1414.57 87.3362L1379.11 127.089H1353.32L1401.67 74.4434Z" fill="white"/>
<path d="M761.331 41.137H660.337V21.7979H761.331V41.137Z" fill="white"/>
<path d="M762.405 127.089H660.337V64.7738H754.884V83.0386H679.676V108.824H762.405V127.089Z" fill="white"/>
<path d="M1287.79 41.137H1186.79V21.7979H1287.79V41.137Z" fill="white"/>
<path d="M1288.86 127.089H1186.79V64.7738H1281.34V83.0386H1206.13V108.824H1288.86V127.089Z" fill="white"/>
<path d="M835.464 127.089V21.7979H908.523C933.234 21.7979 943.978 38.9882 943.978 56.1786C943.978 75.5178 931.086 88.4106 913.895 88.4106L949.35 127.089H924.639L874.142 71.2202H912.821C921.416 71.2202 925.714 65.8482 925.714 56.1786C925.714 46.509 921.416 41.137 912.821 41.137H854.803V127.089H835.464Z" fill="white"/>
<mask id="path-4-outside-1_2444_16" maskUnits="userSpaceOnUse" x="1592.06" y="16.6492" width="655" height="115" fill="black">
<rect fill="white" x="1592.06" y="16.6492" width="655" height="115"/>
<path d="M1595.06 127.046V21.8409H1608.22V116.087H1691.5V127.046H1595.06Z"/>
<path d="M1744.68 127.046L1806.05 21.8409H1823.59L1884.96 127.046H1869.61L1856.46 102.937H1773.18L1760.03 127.046H1744.68ZM1779.75 91.9777H1849.89L1814.82 30.608L1779.75 91.9777Z"/>
<path d="M1938.31 127.046V21.8409H2022.14C2030.09 21.8409 2036.6 22.5944 2041.66 24.1012C2046.78 25.5624 2050.55 28.188 2052.97 31.9779C2055.43 35.7222 2056.66 41.0418 2056.66 47.9367C2056.66 54.1468 2055.23 59.2837 2052.35 63.3476C2049.47 67.4116 2045.07 69.649 2039.13 70.06C2046.89 70.8362 2052.49 73.6216 2055.91 78.4161C2059.34 83.1649 2061.05 89.1466 2061.05 96.3612C2061.05 102.617 2060.32 107.754 2058.86 111.772C2057.44 115.79 2055.04 118.918 2051.66 121.156C2048.28 123.347 2043.7 124.877 2037.9 125.745C2032.14 126.612 2024.95 127.046 2016.32 127.046H1938.31ZM1951.46 65.6764H2012.76C2019.84 65.6764 2025.64 65.4253 2030.16 64.923C2034.68 64.4207 2038.03 62.9367 2040.23 60.4709C2042.42 58.0052 2043.51 53.8271 2043.51 47.9367C2043.51 43.3249 2042.85 39.9459 2041.53 37.7998C2040.25 35.6537 2038.06 34.2838 2034.95 33.6902C2031.85 33.0966 2027.58 32.7998 2022.14 32.7998H1951.46V65.6764ZM1951.46 116.087H2016.32C2022.58 116.087 2027.74 115.927 2031.8 115.608C2035.91 115.288 2039.13 114.512 2041.46 113.279C2043.83 112.046 2045.5 110.105 2046.46 107.457C2047.42 104.763 2047.9 101.064 2047.9 96.3612C2047.9 91.5211 2046.98 87.754 2045.16 85.0599C2043.38 82.3658 2040.86 80.4252 2037.62 79.238C2034.43 78.0508 2030.71 77.3202 2026.46 77.0462C2022.21 76.7723 2017.65 76.6353 2012.76 76.6353H1951.46V116.087Z"/>
<path d="M2230.77 96.6352C2230.77 92.5713 2230.45 89.375 2229.81 87.0462C2229.17 84.7174 2227.73 83.0051 2225.49 81.9092C2223.26 80.7677 2219.79 80.0371 2215.08 79.7175C2210.38 79.3522 2203.94 79.101 2195.77 78.964L2157.69 78.4161C2148.28 78.2791 2140.72 77.7083 2135.02 76.7038C2129.31 75.6992 2124.99 74.1239 2122.07 71.9778C2119.15 69.786 2117.18 66.8636 2116.18 63.2107C2115.22 59.5577 2114.74 54.9915 2114.74 49.5121C2114.74 43.5304 2115.4 38.5989 2116.73 34.7176C2118.1 30.8363 2120.54 27.7998 2124.06 25.6081C2127.62 23.4163 2132.64 21.8866 2139.13 21.019C2145.61 20.1058 2153.99 19.6492 2164.26 19.6492H2193.58C2202.89 19.6492 2210.65 19.946 2216.86 20.5396C2223.07 21.1332 2228.01 22.503 2231.66 24.6492C2235.31 26.7953 2237.91 30.1286 2239.47 34.6491C2241.07 39.1696 2241.86 45.3797 2241.86 53.2792H2228.71C2228.71 47.1605 2228.12 42.5486 2226.93 39.4436C2225.79 36.2929 2223.87 34.1468 2221.18 33.0053C2218.53 31.8637 2214.95 31.2473 2210.43 31.156C2205.91 31.0647 2200.29 31.019 2193.58 31.019H2164.95C2156.77 31.019 2150.22 31.1788 2145.29 31.4984C2140.4 31.8181 2136.71 32.5487 2134.19 33.6902C2131.68 34.8318 2129.99 36.6582 2129.13 39.1696C2128.3 41.6811 2127.89 45.1285 2127.89 49.5121C2127.89 53.2107 2128.19 56.1787 2128.78 58.4162C2129.38 60.6536 2130.7 62.3659 2132.76 63.5531C2134.86 64.6947 2138.08 65.4938 2142.41 65.9504C2146.75 66.3613 2152.66 66.6125 2160.15 66.7038L2200.97 67.2517C2210.56 67.3887 2218.21 67.9595 2223.92 68.9641C2229.67 69.923 2233.97 71.4983 2236.8 73.6901C2239.67 75.8818 2241.57 78.8499 2242.48 82.5942C2243.44 86.2928 2243.92 90.9731 2243.92 96.6352C2243.92 102.8 2243.33 107.982 2242.14 112.183C2241 116.338 2238.76 119.672 2235.43 122.183C2232.09 124.694 2227.28 126.498 2220.97 127.594C2214.67 128.69 2206.39 129.238 2196.11 129.238H2164.06C2154.7 129.238 2146.84 128.827 2140.5 128.005C2134.15 127.183 2129.08 125.539 2125.29 123.073C2121.55 120.562 2118.85 116.841 2117.21 111.909C2115.56 106.978 2114.74 100.402 2114.74 92.1832H2127.89C2127.89 98.6215 2128.42 103.599 2129.47 107.115C2130.52 110.631 2132.34 113.165 2134.95 114.717C2137.6 116.224 2141.27 117.137 2145.97 117.457C2150.72 117.731 2156.75 117.868 2164.06 117.868H2195.43C2203.6 117.868 2210.06 117.617 2214.81 117.115C2219.56 116.567 2223.07 115.562 2225.36 114.101C2227.64 112.594 2229.1 110.448 2229.74 107.663C2230.43 104.877 2230.77 101.201 2230.77 96.6352Z"/>
</mask>
<path d="M1595.06 127.046V21.8409H1608.22V116.087H1691.5V127.046H1595.06Z" fill="url(#paint1_linear_2444_16)"/>
<path d="M1744.68 127.046L1806.05 21.8409H1823.59L1884.96 127.046H1869.61L1856.46 102.937H1773.18L1760.03 127.046H1744.68ZM1779.75 91.9777H1849.89L1814.82 30.608L1779.75 91.9777Z" fill="url(#paint2_linear_2444_16)"/>
<path d="M1938.31 127.046V21.8409H2022.14C2030.09 21.8409 2036.6 22.5944 2041.66 24.1012C2046.78 25.5624 2050.55 28.188 2052.97 31.9779C2055.43 35.7222 2056.66 41.0418 2056.66 47.9367C2056.66 54.1468 2055.23 59.2837 2052.35 63.3476C2049.47 67.4116 2045.07 69.649 2039.13 70.06C2046.89 70.8362 2052.49 73.6216 2055.91 78.4161C2059.34 83.1649 2061.05 89.1466 2061.05 96.3612C2061.05 102.617 2060.32 107.754 2058.86 111.772C2057.44 115.79 2055.04 118.918 2051.66 121.156C2048.28 123.347 2043.7 124.877 2037.9 125.745C2032.14 126.612 2024.95 127.046 2016.32 127.046H1938.31ZM1951.46 65.6764H2012.76C2019.84 65.6764 2025.64 65.4253 2030.16 64.923C2034.68 64.4207 2038.03 62.9367 2040.23 60.4709C2042.42 58.0052 2043.51 53.8271 2043.51 47.9367C2043.51 43.3249 2042.85 39.9459 2041.53 37.7998C2040.25 35.6537 2038.06 34.2838 2034.95 33.6902C2031.85 33.0966 2027.58 32.7998 2022.14 32.7998H1951.46V65.6764ZM1951.46 116.087H2016.32C2022.58 116.087 2027.74 115.927 2031.8 115.608C2035.91 115.288 2039.13 114.512 2041.46 113.279C2043.83 112.046 2045.5 110.105 2046.46 107.457C2047.42 104.763 2047.9 101.064 2047.9 96.3612C2047.9 91.5211 2046.98 87.754 2045.16 85.0599C2043.38 82.3658 2040.86 80.4252 2037.62 79.238C2034.43 78.0508 2030.71 77.3202 2026.46 77.0462C2022.21 76.7723 2017.65 76.6353 2012.76 76.6353H1951.46V116.087Z" fill="url(#paint3_linear_2444_16)"/>
<path d="M2230.77 96.6352C2230.77 92.5713 2230.45 89.375 2229.81 87.0462C2229.17 84.7174 2227.73 83.0051 2225.49 81.9092C2223.26 80.7677 2219.79 80.0371 2215.08 79.7175C2210.38 79.3522 2203.94 79.101 2195.77 78.964L2157.69 78.4161C2148.28 78.2791 2140.72 77.7083 2135.02 76.7038C2129.31 75.6992 2124.99 74.1239 2122.07 71.9778C2119.15 69.786 2117.18 66.8636 2116.18 63.2107C2115.22 59.5577 2114.74 54.9915 2114.74 49.5121C2114.74 43.5304 2115.4 38.5989 2116.73 34.7176C2118.1 30.8363 2120.54 27.7998 2124.06 25.6081C2127.62 23.4163 2132.64 21.8866 2139.13 21.019C2145.61 20.1058 2153.99 19.6492 2164.26 19.6492H2193.58C2202.89 19.6492 2210.65 19.946 2216.86 20.5396C2223.07 21.1332 2228.01 22.503 2231.66 24.6492C2235.31 26.7953 2237.91 30.1286 2239.47 34.6491C2241.07 39.1696 2241.86 45.3797 2241.86 53.2792H2228.71C2228.71 47.1605 2228.12 42.5486 2226.93 39.4436C2225.79 36.2929 2223.87 34.1468 2221.18 33.0053C2218.53 31.8637 2214.95 31.2473 2210.43 31.156C2205.91 31.0647 2200.29 31.019 2193.58 31.019H2164.95C2156.77 31.019 2150.22 31.1788 2145.29 31.4984C2140.4 31.8181 2136.71 32.5487 2134.19 33.6902C2131.68 34.8318 2129.99 36.6582 2129.13 39.1696C2128.3 41.6811 2127.89 45.1285 2127.89 49.5121C2127.89 53.2107 2128.19 56.1787 2128.78 58.4162C2129.38 60.6536 2130.7 62.3659 2132.76 63.5531C2134.86 64.6947 2138.08 65.4938 2142.41 65.9504C2146.75 66.3613 2152.66 66.6125 2160.15 66.7038L2200.97 67.2517C2210.56 67.3887 2218.21 67.9595 2223.92 68.9641C2229.67 69.923 2233.97 71.4983 2236.8 73.6901C2239.67 75.8818 2241.57 78.8499 2242.48 82.5942C2243.44 86.2928 2243.92 90.9731 2243.92 96.6352C2243.92 102.8 2243.33 107.982 2242.14 112.183C2241 116.338 2238.76 119.672 2235.43 122.183C2232.09 124.694 2227.28 126.498 2220.97 127.594C2214.67 128.69 2206.39 129.238 2196.11 129.238H2164.06C2154.7 129.238 2146.84 128.827 2140.5 128.005C2134.15 127.183 2129.08 125.539 2125.29 123.073C2121.55 120.562 2118.85 116.841 2117.21 111.909C2115.56 106.978 2114.74 100.402 2114.74 92.1832H2127.89C2127.89 98.6215 2128.42 103.599 2129.47 107.115C2130.52 110.631 2132.34 113.165 2134.95 114.717C2137.6 116.224 2141.27 117.137 2145.97 117.457C2150.72 117.731 2156.75 117.868 2164.06 117.868H2195.43C2203.6 117.868 2210.06 117.617 2214.81 117.115C2219.56 116.567 2223.07 115.562 2225.36 114.101C2227.64 112.594 2229.1 110.448 2229.74 107.663C2230.43 104.877 2230.77 101.201 2230.77 96.6352Z" fill="url(#paint4_linear_2444_16)"/>
<path d="M1595.06 127.046V21.8409H1608.22V116.087H1691.5V127.046H1595.06Z" stroke="url(#paint5_linear_2444_16)" stroke-width="4.2976" mask="url(#path-4-outside-1_2444_16)"/>
<path d="M1744.68 127.046L1806.05 21.8409H1823.59L1884.96 127.046H1869.61L1856.46 102.937H1773.18L1760.03 127.046H1744.68ZM1779.75 91.9777H1849.89L1814.82 30.608L1779.75 91.9777Z" stroke="url(#paint6_linear_2444_16)" stroke-width="4.2976" mask="url(#path-4-outside-1_2444_16)"/>
<path d="M1938.31 127.046V21.8409H2022.14C2030.09 21.8409 2036.6 22.5944 2041.66 24.1012C2046.78 25.5624 2050.55 28.188 2052.97 31.9779C2055.43 35.7222 2056.66 41.0418 2056.66 47.9367C2056.66 54.1468 2055.23 59.2837 2052.35 63.3476C2049.47 67.4116 2045.07 69.649 2039.13 70.06C2046.89 70.8362 2052.49 73.6216 2055.91 78.4161C2059.34 83.1649 2061.05 89.1466 2061.05 96.3612C2061.05 102.617 2060.32 107.754 2058.86 111.772C2057.44 115.79 2055.04 118.918 2051.66 121.156C2048.28 123.347 2043.7 124.877 2037.9 125.745C2032.14 126.612 2024.95 127.046 2016.32 127.046H1938.31ZM1951.46 65.6764H2012.76C2019.84 65.6764 2025.64 65.4253 2030.16 64.923C2034.68 64.4207 2038.03 62.9367 2040.23 60.4709C2042.42 58.0052 2043.51 53.8271 2043.51 47.9367C2043.51 43.3249 2042.85 39.9459 2041.53 37.7998C2040.25 35.6537 2038.06 34.2838 2034.95 33.6902C2031.85 33.0966 2027.58 32.7998 2022.14 32.7998H1951.46V65.6764ZM1951.46 116.087H2016.32C2022.58 116.087 2027.74 115.927 2031.8 115.608C2035.91 115.288 2039.13 114.512 2041.46 113.279C2043.83 112.046 2045.5 110.105 2046.46 107.457C2047.42 104.763 2047.9 101.064 2047.9 96.3612C2047.9 91.5211 2046.98 87.754 2045.16 85.0599C2043.38 82.3658 2040.86 80.4252 2037.62 79.238C2034.43 78.0508 2030.71 77.3202 2026.46 77.0462C2022.21 76.7723 2017.65 76.6353 2012.76 76.6353H1951.46V116.087Z" stroke="url(#paint7_linear_2444_16)" stroke-width="4.2976" mask="url(#path-4-outside-1_2444_16)"/>
<path d="M2230.77 96.6352C2230.77 92.5713 2230.45 89.375 2229.81 87.0462C2229.17 84.7174 2227.73 83.0051 2225.49 81.9092C2223.26 80.7677 2219.79 80.0371 2215.08 79.7175C2210.38 79.3522 2203.94 79.101 2195.77 78.964L2157.69 78.4161C2148.28 78.2791 2140.72 77.7083 2135.02 76.7038C2129.31 75.6992 2124.99 74.1239 2122.07 71.9778C2119.15 69.786 2117.18 66.8636 2116.18 63.2107C2115.22 59.5577 2114.74 54.9915 2114.74 49.5121C2114.74 43.5304 2115.4 38.5989 2116.73 34.7176C2118.1 30.8363 2120.54 27.7998 2124.06 25.6081C2127.62 23.4163 2132.64 21.8866 2139.13 21.019C2145.61 20.1058 2153.99 19.6492 2164.26 19.6492H2193.58C2202.89 19.6492 2210.65 19.946 2216.86 20.5396C2223.07 21.1332 2228.01 22.503 2231.66 24.6492C2235.31 26.7953 2237.91 30.1286 2239.47 34.6491C2241.07 39.1696 2241.86 45.3797 2241.86 53.2792H2228.71C2228.71 47.1605 2228.12 42.5486 2226.93 39.4436C2225.79 36.2929 2223.87 34.1468 2221.18 33.0053C2218.53 31.8637 2214.95 31.2473 2210.43 31.156C2205.91 31.0647 2200.29 31.019 2193.58 31.019H2164.95C2156.77 31.019 2150.22 31.1788 2145.29 31.4984C2140.4 31.8181 2136.71 32.5487 2134.19 33.6902C2131.68 34.8318 2129.99 36.6582 2129.13 39.1696C2128.3 41.6811 2127.89 45.1285 2127.89 49.5121C2127.89 53.2107 2128.19 56.1787 2128.78 58.4162C2129.38 60.6536 2130.7 62.3659 2132.76 63.5531C2134.86 64.6947 2138.08 65.4938 2142.41 65.9504C2146.75 66.3613 2152.66 66.6125 2160.15 66.7038L2200.97 67.2517C2210.56 67.3887 2218.21 67.9595 2223.92 68.9641C2229.67 69.923 2233.97 71.4983 2236.8 73.6901C2239.67 75.8818 2241.57 78.8499 2242.48 82.5942C2243.44 86.2928 2243.92 90.9731 2243.92 96.6352C2243.92 102.8 2243.33 107.982 2242.14 112.183C2241 116.338 2238.76 119.672 2235.43 122.183C2232.09 124.694 2227.28 126.498 2220.97 127.594C2214.67 128.69 2206.39 129.238 2196.11 129.238H2164.06C2154.7 129.238 2146.84 128.827 2140.5 128.005C2134.15 127.183 2129.08 125.539 2125.29 123.073C2121.55 120.562 2118.85 116.841 2117.21 111.909C2115.56 106.978 2114.74 100.402 2114.74 92.1832H2127.89C2127.89 98.6215 2128.42 103.599 2129.47 107.115C2130.52 110.631 2132.34 113.165 2134.95 114.717C2137.6 116.224 2141.27 117.137 2145.97 117.457C2150.72 117.731 2156.75 117.868 2164.06 117.868H2195.43C2203.6 117.868 2210.06 117.617 2214.81 117.115C2219.56 116.567 2223.07 115.562 2225.36 114.101C2227.64 112.594 2229.1 110.448 2229.74 107.663C2230.43 104.877 2230.77 101.201 2230.77 96.6352Z" stroke="url(#paint8_linear_2444_16)" stroke-width="4.2976" mask="url(#path-4-outside-1_2444_16)"/>
<rect x="468.556" y="217.512" width="301.793" height="9.28595" fill="url(#paint9_linear_2444_16)"/>
<path d="M880.865 244.155H876.213V208.462H863.699V204.381H893.325V208.462H880.865V244.155ZM932.625 244.155H910.48V204.381H932.625V208.462H915.105V221.33H931.619V225.356H915.105V240.074H932.625V244.155ZM969.586 207.891C967.391 207.891 965.414 208.271 963.655 209.033C961.914 209.777 960.427 210.865 959.193 212.298C957.978 213.712 957.044 215.426 956.391 217.44C955.738 219.453 955.412 221.72 955.412 224.241C955.412 227.578 955.929 230.48 956.963 232.946C958.015 235.395 959.574 237.29 961.642 238.632C963.728 239.974 966.33 240.645 969.45 240.645C971.227 240.645 972.896 240.5 974.455 240.21C976.033 239.902 977.566 239.521 979.053 239.067V243.094C977.602 243.638 976.079 244.037 974.483 244.291C972.887 244.563 970.991 244.699 968.797 244.699C964.752 244.699 961.37 243.865 958.649 242.196C955.947 240.509 953.916 238.133 952.555 235.068C951.213 232.003 950.542 228.385 950.542 224.214C950.542 221.203 950.959 218.455 951.794 215.97C952.646 213.468 953.879 211.309 955.494 209.496C957.126 207.682 959.121 206.286 961.479 205.306C963.855 204.309 966.575 203.81 969.64 203.81C971.653 203.81 973.594 204.009 975.462 204.408C977.33 204.807 979.017 205.379 980.522 206.122L978.672 210.04C977.403 209.459 976.006 208.961 974.483 208.544C972.977 208.108 971.345 207.891 969.586 207.891ZM1028.96 244.155H1024.34V225.411H1003.44V244.155H998.82V204.381H1003.44V221.33H1024.34V204.381H1028.96V244.155ZM1082.14 244.155H1076.81L1055.12 210.747H1054.91C1054.96 211.636 1055.02 212.651 1055.1 213.794C1055.17 214.919 1055.22 216.125 1055.26 217.412C1055.31 218.682 1055.34 219.979 1055.34 221.303V244.155H1051.04V204.381H1056.35L1077.95 237.68H1078.14C1078.1 237.045 1078.06 236.147 1078 234.987C1077.95 233.808 1077.89 232.547 1077.84 231.205C1077.8 229.845 1077.79 228.584 1077.79 227.424V204.381H1082.14V244.155ZM1138.63 224.214C1138.63 227.279 1138.24 230.072 1137.46 232.593C1136.68 235.096 1135.52 237.254 1133.98 239.067C1132.46 240.863 1130.56 242.25 1128.29 243.23C1126.03 244.209 1123.4 244.699 1120.4 244.699C1117.32 244.699 1114.63 244.209 1112.32 243.23C1110.04 242.25 1108.14 240.854 1106.61 239.04C1105.11 237.227 1103.97 235.059 1103.21 232.538C1102.47 230.017 1102.1 227.224 1102.1 224.159C1102.1 220.097 1102.77 216.533 1104.11 213.468C1105.45 210.403 1107.48 208.018 1110.2 206.313C1112.94 204.608 1116.37 203.755 1120.49 203.755C1124.42 203.755 1127.73 204.599 1130.42 206.286C1133.12 207.972 1135.16 210.348 1136.54 213.413C1137.93 216.46 1138.63 220.06 1138.63 224.214ZM1106.97 224.214C1106.97 227.587 1107.45 230.507 1108.41 232.974C1109.37 235.44 1110.84 237.344 1112.81 238.687C1114.81 240.029 1117.34 240.7 1120.4 240.7C1123.49 240.7 1126.01 240.029 1127.97 238.687C1129.94 237.344 1131.4 235.44 1132.35 232.974C1133.29 230.507 1133.76 227.587 1133.76 224.214C1133.76 219.081 1132.68 215.073 1130.52 212.189C1128.38 209.287 1125.04 207.836 1120.49 207.836C1117.4 207.836 1114.86 208.498 1112.87 209.822C1110.87 211.146 1109.39 213.032 1108.41 215.481C1107.45 217.911 1106.97 220.822 1106.97 224.214ZM1158.64 244.155V204.381H1163.27V240.02H1180.92V244.155H1158.64ZM1233.39 224.214C1233.39 227.279 1233 230.072 1232.22 232.593C1231.44 235.096 1230.28 237.254 1228.74 239.067C1227.22 240.863 1225.32 242.25 1223.05 243.23C1220.79 244.209 1218.16 244.699 1215.16 244.699C1212.08 244.699 1209.39 244.209 1207.08 243.23C1204.8 242.25 1202.9 240.854 1201.37 239.04C1199.87 237.227 1198.73 235.059 1197.97 232.538C1197.23 230.017 1196.86 227.224 1196.86 224.159C1196.86 220.097 1197.53 216.533 1198.87 213.468C1200.21 210.403 1202.24 208.018 1204.96 206.313C1207.7 204.608 1211.13 203.755 1215.25 203.755C1219.18 203.755 1222.49 204.599 1225.18 206.286C1227.88 207.972 1229.92 210.348 1231.3 213.413C1232.69 216.46 1233.39 220.06 1233.39 224.214ZM1201.73 224.214C1201.73 227.587 1202.21 230.507 1203.17 232.974C1204.13 235.44 1205.6 237.344 1207.57 238.687C1209.57 240.029 1212.1 240.7 1215.16 240.7C1218.25 240.7 1220.77 240.029 1222.73 238.687C1224.7 237.344 1226.16 235.44 1227.11 232.974C1228.05 230.507 1228.52 227.587 1228.52 224.214C1228.52 219.081 1227.44 215.073 1225.28 212.189C1223.14 209.287 1219.8 207.836 1215.25 207.836C1212.16 207.836 1209.62 208.498 1207.63 209.822C1205.63 211.146 1204.15 213.032 1203.17 215.481C1202.21 217.911 1201.73 220.822 1201.73 224.214ZM1270.41 223.316H1284.31V242.604C1282.22 243.311 1280.07 243.837 1277.86 244.182C1275.67 244.527 1273.21 244.699 1270.49 244.699C1266.35 244.699 1262.86 243.874 1260.01 242.223C1257.19 240.573 1255.04 238.224 1253.57 235.177C1252.1 232.112 1251.36 228.476 1251.36 224.268C1251.36 220.151 1252.17 216.56 1253.78 213.495C1255.42 210.43 1257.77 208.054 1260.83 206.367C1263.91 204.662 1267.61 203.81 1271.93 203.81C1274.14 203.81 1276.24 204.018 1278.21 204.436C1280.21 204.835 1282.06 205.406 1283.76 206.149L1282 210.176C1280.53 209.541 1278.9 208.997 1277.13 208.544C1275.37 208.09 1273.54 207.863 1271.66 207.863C1268.41 207.863 1265.63 208.534 1263.31 209.877C1261 211.219 1259.23 213.114 1258 215.562C1256.79 218.011 1256.18 220.913 1256.18 224.268C1256.18 227.587 1256.71 230.48 1257.78 232.946C1258.85 235.395 1260.52 237.299 1262.79 238.659C1265.06 240.02 1267.98 240.7 1271.55 240.7C1273.35 240.7 1274.89 240.6 1276.17 240.401C1277.46 240.183 1278.63 239.929 1279.68 239.639V227.451H1270.41V223.316ZM1315.23 224.322L1325.81 204.381H1330.79L1317.54 228.73V244.155H1312.92V228.947L1299.64 204.381H1304.7L1315.23 224.322ZM1403.26 244.155H1398.63V204.381H1420.78V208.462H1403.26V223.044H1419.72V227.097H1403.26V244.155ZM1473.06 224.214C1473.06 227.279 1472.67 230.072 1471.89 232.593C1471.11 235.096 1469.95 237.254 1468.4 239.067C1466.88 240.863 1464.99 242.25 1462.72 243.23C1460.45 244.209 1457.82 244.699 1454.83 244.699C1451.75 244.699 1449.05 244.209 1446.75 243.23C1444.46 242.25 1442.56 240.854 1441.04 239.04C1439.53 237.227 1438.4 235.059 1437.64 232.538C1436.89 230.017 1436.52 227.224 1436.52 224.159C1436.52 220.097 1437.19 216.533 1438.53 213.468C1439.88 210.403 1441.91 208.018 1444.63 206.313C1447.37 204.608 1450.79 203.755 1454.91 203.755C1458.85 203.755 1462.16 204.599 1464.84 206.286C1467.54 207.972 1469.58 210.348 1470.96 213.413C1472.36 216.46 1473.06 220.06 1473.06 224.214ZM1441.39 224.214C1441.39 227.587 1441.87 230.507 1442.83 232.974C1443.79 235.44 1445.26 237.344 1447.24 238.687C1449.23 240.029 1451.76 240.7 1454.83 240.7C1457.91 240.7 1460.43 240.029 1462.39 238.687C1464.37 237.344 1465.83 235.44 1466.77 232.974C1467.72 230.507 1468.19 227.587 1468.19 224.214C1468.19 219.081 1467.11 215.073 1464.95 212.189C1462.81 209.287 1459.46 207.836 1454.91 207.836C1451.83 207.836 1449.29 208.498 1447.29 209.822C1445.3 211.146 1443.81 213.032 1442.83 215.481C1441.87 217.911 1441.39 220.822 1441.39 224.214ZM1503.81 204.381C1507.08 204.381 1509.77 204.789 1511.89 205.605C1514.03 206.403 1515.63 207.628 1516.68 209.278C1517.73 210.928 1518.26 213.032 1518.26 215.59C1518.26 217.693 1517.88 219.453 1517.12 220.867C1516.36 222.264 1515.36 223.397 1514.13 224.268C1512.89 225.139 1511.58 225.81 1510.18 226.281L1521.09 244.155H1515.7L1505.96 227.56H1497.69V244.155H1493.07V204.381H1503.81ZM1503.54 208.38H1497.69V223.642H1504C1507.25 223.642 1509.64 222.98 1511.16 221.656C1512.7 220.332 1513.47 218.383 1513.47 215.807C1513.47 213.105 1512.66 211.191 1511.02 210.067C1509.41 208.943 1506.92 208.38 1503.54 208.38ZM1589.83 244.155V204.381H1594.46V244.155H1589.83ZM1634.03 244.155L1620.67 208.952H1620.45C1620.53 209.695 1620.59 210.602 1620.64 211.672C1620.7 212.742 1620.74 213.912 1620.78 215.182C1620.82 216.433 1620.83 217.712 1620.83 219.017V244.155H1616.54V204.381H1623.39L1635.99 237.462H1636.18L1648.96 204.381H1655.76V244.155H1651.19V218.691C1651.19 217.512 1651.21 216.333 1651.25 215.154C1651.29 213.957 1651.33 212.833 1651.38 211.781C1651.44 210.711 1651.49 209.786 1651.55 209.006H1651.33L1637.81 244.155H1634.03ZM1688.18 204.381C1693.31 204.381 1697.06 205.388 1699.42 207.401C1701.79 209.396 1702.98 212.262 1702.98 215.998C1702.98 217.684 1702.7 219.289 1702.14 220.813C1701.59 222.318 1700.71 223.651 1699.47 224.812C1698.24 225.955 1696.62 226.862 1694.6 227.533C1692.61 228.185 1690.16 228.512 1687.26 228.512H1682.41V244.155H1677.79V204.381H1688.18ZM1687.75 208.326H1682.41V224.54H1686.74C1689.28 224.54 1691.39 224.268 1693.08 223.724C1694.78 223.18 1696.06 222.3 1696.92 221.085C1697.77 219.852 1698.19 218.219 1698.19 216.188C1698.19 213.54 1697.35 211.572 1695.66 210.285C1693.98 208.979 1691.34 208.326 1687.75 208.326ZM1747.4 244.155L1742.5 231.532H1726.56L1721.69 244.155H1717.01L1732.57 204.218H1736.73L1752.18 244.155H1747.4ZM1741.11 227.424L1736.46 214.882C1736.35 214.556 1736.17 214.021 1735.92 213.277C1735.68 212.534 1735.44 211.763 1735.18 210.965C1734.93 210.167 1734.72 209.523 1734.56 209.033C1734.37 209.777 1734.17 210.52 1733.96 211.264C1733.76 211.989 1733.56 212.67 1733.36 213.304C1733.16 213.921 1732.99 214.447 1732.84 214.882L1728.11 227.424H1741.11ZM1785.85 207.891C1783.66 207.891 1781.68 208.271 1779.92 209.033C1778.18 209.777 1776.69 210.865 1775.46 212.298C1774.25 213.712 1773.31 215.426 1772.66 217.44C1772.01 219.453 1771.68 221.72 1771.68 224.241C1771.68 227.578 1772.2 230.48 1773.23 232.946C1774.28 235.395 1775.84 237.29 1777.91 238.632C1780 239.974 1782.6 240.645 1785.72 240.645C1787.49 240.645 1789.16 240.5 1790.72 240.21C1792.3 239.902 1793.83 239.521 1795.32 239.067V243.094C1793.87 243.638 1792.35 244.037 1790.75 244.291C1789.15 244.563 1787.26 244.699 1785.06 244.699C1781.02 244.699 1777.64 243.865 1774.92 242.196C1772.21 240.509 1770.18 238.133 1768.82 235.068C1767.48 232.003 1766.81 228.385 1766.81 224.214C1766.81 221.203 1767.23 218.455 1768.06 215.97C1768.91 213.468 1770.15 211.309 1771.76 209.496C1773.39 207.682 1775.39 206.286 1777.75 205.306C1780.12 204.309 1782.84 203.81 1785.91 203.81C1787.92 203.81 1789.86 204.009 1791.73 204.408C1793.6 204.807 1795.28 205.379 1796.79 206.122L1794.94 210.04C1793.67 209.459 1792.27 208.961 1790.75 208.544C1789.24 208.108 1787.61 207.891 1785.85 207.891ZM1827.3 244.155H1822.65V208.462H1810.14V204.381H1839.76V208.462H1827.3V244.155Z" fill="white"/>
<rect x="1934.07" y="217.512" width="301.793" height="9.28595" fill="url(#paint10_linear_2444_16)"/>
<defs>
<linearGradient id="paint0_linear_2444_16" x1="289.499" y1="0" x2="289.499" y2="228.5" gradientUnits="userSpaceOnUse">
<stop stop-color="#14B8A6"/>
<stop offset="1" stop-color="#5AA12C"/>
</linearGradient>
<linearGradient id="paint1_linear_2444_16" x1="1595.06" y1="74.4435" x2="2243.92" y2="74.4435" gradientUnits="userSpaceOnUse">
<stop stop-color="#14B8A6"/>
<stop offset="1" stop-color="#68C72A"/>
</linearGradient>
<linearGradient id="paint2_linear_2444_16" x1="1595.06" y1="74.4435" x2="2243.92" y2="74.4435" gradientUnits="userSpaceOnUse">
<stop stop-color="#14B8A6"/>
<stop offset="1" stop-color="#68C72A"/>
</linearGradient>
<linearGradient id="paint3_linear_2444_16" x1="1595.06" y1="74.4435" x2="2243.92" y2="74.4435" gradientUnits="userSpaceOnUse">
<stop stop-color="#14B8A6"/>
<stop offset="1" stop-color="#68C72A"/>
</linearGradient>
<linearGradient id="paint4_linear_2444_16" x1="1595.06" y1="74.4435" x2="2243.92" y2="74.4435" gradientUnits="userSpaceOnUse">
<stop stop-color="#14B8A6"/>
<stop offset="1" stop-color="#68C72A"/>
</linearGradient>
<linearGradient id="paint5_linear_2444_16" x1="1595.06" y1="74.4435" x2="2243.92" y2="74.4435" gradientUnits="userSpaceOnUse">
<stop stop-color="#14B8A6"/>
<stop offset="1" stop-color="#68C72A"/>
</linearGradient>
<linearGradient id="paint6_linear_2444_16" x1="1595.06" y1="74.4435" x2="2243.92" y2="74.4435" gradientUnits="userSpaceOnUse">
<stop stop-color="#14B8A6"/>
<stop offset="1" stop-color="#68C72A"/>
</linearGradient>
<linearGradient id="paint7_linear_2444_16" x1="1595.06" y1="74.4435" x2="2243.92" y2="74.4435" gradientUnits="userSpaceOnUse">
<stop stop-color="#14B8A6"/>
<stop offset="1" stop-color="#68C72A"/>
</linearGradient>
<linearGradient id="paint8_linear_2444_16" x1="1595.06" y1="74.4435" x2="2243.92" y2="74.4435" gradientUnits="userSpaceOnUse">
<stop stop-color="#14B8A6"/>
<stop offset="1" stop-color="#68C72A"/>
</linearGradient>
<linearGradient id="paint9_linear_2444_16" x1="468.556" y1="222.155" x2="770.35" y2="222.155" gradientUnits="userSpaceOnUse">
<stop stop-color="#14B8A6"/>
<stop offset="1" stop-color="#68C72A"/>
</linearGradient>
<linearGradient id="paint10_linear_2444_16" x1="1934.07" y1="222.155" x2="2235.86" y2="222.155" gradientUnits="userSpaceOnUse">
<stop stop-color="#14B8A6"/>
<stop offset="1" stop-color="#68C72A"/>
</linearGradient>
</defs>
</svg>
